<svg width="39" height="34" viewBox="0 0 39 34" fill="none" xmlns="http://www.w3.org/2000/svg">
<path d="M19.5 0C30.2698 0 39 8.76053 39 19.5679C39.0032 22.1422 38.4986 24.6917 37.5153 27.0695C36.532 29.4472 35.0895 31.6062 33.2709 33.4219C32.4909 34.2046 31.2234 34.189 30.4629 33.3965L28.821 31.6882C28.6433 31.5032 28.5036 31.2849 28.41 31.0457C28.3164 30.8065 28.2706 30.5511 28.2753 30.2942C28.28 30.0373 28.3351 29.7838 28.4374 29.5482C28.5398 29.3127 28.6873 29.0996 28.8717 28.9213C29.2441 28.5611 29.7437 28.3642 30.2608 28.3737C30.5169 28.3784 30.7695 28.4337 31.0042 28.5364C31.239 28.6391 31.4513 28.7872 31.629 28.9722L31.8201 29.1718C33.611 26.8581 34.7189 24.0865 35.018 21.1722C35.317 18.258 34.795 15.318 33.5115 12.6867C32.228 10.0553 30.2343 7.83824 27.7574 6.28752C25.2804 4.7368 22.4195 3.91469 19.5 3.91469C16.5805 3.91469 13.7196 4.7368 11.2426 6.28752C8.76566 7.83824 6.77205 10.0553 5.48851 12.6867C4.20498 15.318 3.68304 18.258 3.98204 21.1722C4.28105 24.0865 5.38901 26.8581 7.17991 29.1718L7.37101 28.9722C7.54873 28.7872 7.76102 28.6391 7.99577 28.5364C8.23051 28.4337 8.48312 28.3784 8.73916 28.3737C8.9952 28.369 9.24965 28.4149 9.48801 28.5089C9.72636 28.6028 9.94393 28.743 10.1283 28.9213C10.3127 29.0996 10.4602 29.3127 10.5626 29.5482C10.6649 29.7838 10.72 30.0373 10.7247 30.2942C10.7294 30.5511 10.6837 30.8065 10.59 31.0457C10.4964 31.2849 10.3567 31.5032 10.179 31.6882L8.53711 33.3965C8.35551 33.5851 8.13832 33.7356 7.89818 33.8391C7.65805 33.9427 7.39978 33.9972 7.13842 33.9996C6.87707 34.0019 6.61786 33.9521 6.3759 33.8529C6.13394 33.7537 5.91407 33.6072 5.72911 33.4219C3.9105 31.6062 2.46799 29.4472 1.48471 27.0695C0.501436 24.6917 -0.00315738 22.1422 1.48647e-05 19.5679C1.48647e-05 8.76053 8.73016 0 19.5 0ZM19.5 7.82715C20.0172 7.82715 20.5132 8.03331 20.8789 8.40028C21.2446 8.76725 21.45 9.26496 21.45 9.78393V20.0923C22.1935 20.5231 22.7745 21.188 23.103 21.9839C23.4315 22.7798 23.4891 23.6622 23.2669 24.4944C23.0447 25.3265 22.5551 26.0618 21.8741 26.5862C21.193 27.1107 20.3585 27.395 19.5 27.395C18.6415 27.395 17.807 27.1107 17.1259 26.5862C16.4449 26.0618 15.9553 25.3265 15.7331 24.4944C15.5109 23.6622 15.5685 22.7798 15.897 21.9839C16.2255 21.188 16.8065 20.5231 17.55 20.0923V9.78393C17.55 9.26496 17.7554 8.76725 18.1211 8.40028C18.4868 8.03331 18.9828 7.82715 19.5 7.82715Z" fill="url(#paint0_linear_5007_2873)"/>
<defs>
<linearGradient id="paint0_linear_5007_2873" x1="19.5" y1="0" x2="19.5" y2="34" gradientUnits="userSpaceOnUse">
<stop stop-color="#FF2993"/>
<stop offset="1" stop-color="white"/>
</linearGradient>
</defs>
</svg>
