<svg width="48" height="40" viewBox="0 0 48 40" fill="none" xmlns="http://www.w3.org/2000/svg">
<path d="M38.4534 26.4032C37.9584 25.7221 37.2722 25.2034 36.482 24.9127C35.6917 24.6221 34.833 24.5726 34.0146 24.7705C32.3139 25.1617 31.6592 26.2246 30.9364 27.1685C22.4159 16.0715 22.6625 16.0375 21.2594 15.5358V8.50345C29.6694 8.50345 29.3377 8.66501 29.6609 8.05276C29.984 7.44052 29.6609 7.24494 28.2323 5.10207C29.6268 3.01022 29.984 2.74661 29.6609 2.15137C29.3377 1.55613 29.5248 1.70069 21.2594 1.70069V0.850345C21.2594 0.624819 21.1699 0.408531 21.0104 0.24906C20.8509 0.0895898 20.6346 0 20.4091 0C20.1836 0 19.9673 0.0895898 19.8078 0.24906C19.6483 0.408531 19.5588 0.624819 19.5588 0.850345V15.3062C19.0585 15.3575 18.5741 15.5107 18.1354 15.7564C17.6966 16.0021 17.3128 16.3351 17.0077 16.7348C-0.99408 40.1193 0.128376 38.6312 0.0603479 38.8012C0.00894562 38.9303 -0.0100517 39.07 0.00501748 39.2081C0.0200867 39.3462 0.0687635 39.4785 0.146791 39.5935C0.224818 39.7084 0.329818 39.8025 0.45261 39.8675C0.575401 39.9324 0.712244 39.9663 0.851168 39.9662C50.3582 39.9662 47.178 40.1873 47.5266 39.4985C47.8752 38.8097 48.1474 39.558 38.4534 26.4032ZM39.4313 30.6124L37.8667 31.7944L36.4126 26.8029C36.9483 27.1175 36.8803 27.126 39.4313 30.6124ZM36.0299 31.5393C33.5639 30.3063 34.3292 30.2468 31.6677 32.0325L30.5622 30.5614C34.7714 24.9831 34.1337 25.0512 36.0214 31.5138L36.0299 31.5393ZM27.9942 31.1226L25.5112 25.5103H27.552L29.9074 28.5631L27.9942 31.1226ZM26.234 23.8097H24.7459L22.722 19.2518L26.234 23.8097ZM27.3224 3.40138C26.0214 5.34867 26.0384 4.87248 27.3224 6.80276H21.2594V3.40138H27.3224ZM19.023 17.2535C20.052 16.7093 20.0094 17.3385 23.0367 24.1498L21.5911 25.1192L20.3156 22.5681C20.2442 22.4289 20.1358 22.312 20.0023 22.2303C19.8687 22.1487 19.7153 22.1055 19.5588 22.1055C19.4023 22.1055 19.2488 22.1487 19.1153 22.2303C18.9817 22.312 18.8733 22.4289 18.8019 22.5681L16.9057 26.3607L16.0128 25.0341C15.9386 24.9233 15.8393 24.8315 15.723 24.7662C15.6067 24.7008 15.4766 24.6638 15.3434 24.658C15.2101 24.6522 15.0773 24.6778 14.9558 24.7328C14.8342 24.7878 14.7274 24.8707 14.6438 24.9746L12.1523 28.0614L11.5655 26.6158C18.904 17.1004 18.4533 17.5596 19.023 17.2535ZM10.358 28.1804C11.2084 30.2723 11.2084 30.5189 11.7781 30.6039C12.3478 30.6889 12.3903 30.5189 15.2475 26.9474L16.3019 28.5291C16.3843 28.6519 16.4974 28.7512 16.6299 28.817C16.7624 28.8828 16.9098 28.9129 17.0575 28.9044C17.2052 28.8958 17.3481 28.8488 17.4721 28.7681C17.5961 28.6873 17.6969 28.5756 17.7645 28.444L19.5588 24.8641L20.5026 26.7433C20.557 26.8497 20.6333 26.9434 20.7263 27.0184C20.8194 27.0933 20.9272 27.1478 21.0427 27.1783C21.1583 27.2088 21.2789 27.2146 21.3969 27.1953C21.5148 27.1761 21.6273 27.1322 21.7271 27.0665L23.7425 25.7314L26.8122 32.6447C26.6166 32.8913 22.7561 37.9849 22.5605 38.2655H16.1574V34.8641C16.1574 34.6386 16.0678 34.4223 15.9083 34.2628C15.7488 34.1034 15.5326 34.0138 15.307 34.0138C15.0815 34.0138 14.8652 34.1034 14.7057 34.2628C14.5463 34.4223 14.4567 34.6386 14.4567 34.8641V38.2655H11.9057V36.5648C11.9057 36.3393 11.8161 36.123 11.6566 35.9635C11.4971 35.8041 11.2808 35.7145 11.0553 35.7145C10.8298 35.7145 10.6135 35.8041 10.454 35.9635C10.2946 36.123 10.205 36.3393 10.205 36.5648V38.2655H2.55186L10.358 28.1804ZM24.6608 38.2655L29.4653 31.9389L30.7663 33.6396C30.8969 33.8122 31.0883 33.9284 31.3016 33.9648C31.5148 34.0011 31.7339 33.9548 31.9143 33.8352L34.0571 32.4066L36.6082 33.7077L37.9857 38.2655H24.6608ZM39.7374 38.2655L38.3514 33.5121L40.4262 31.956L45.0691 38.2655H39.7374Z" fill="url(#paint0_linear_5007_2867)"/>
<defs>
<linearGradient id="paint0_linear_5007_2867" x1="51.4467" y1="70.5786" x2="13.6064" y2="-7.22793" gradientUnits="userSpaceOnUse">
<stop stop-color="#FF2993"/>
<stop offset="1" stop-color="#FFA2D0"/>
</linearGradient>
</defs>
</svg>
