<svg width="28" height="34" viewBox="0 0 28 34" fill="none" xmlns="http://www.w3.org/2000/svg">
<path d="M16.5274 0.28884C17.6769 -0.547902 19.2748 0.561734 18.9658 1.97452L18.8692 2.28137L14.5639 12.7541L26.3929 12.6047C26.628 12.6008 26.8601 12.6506 27.0725 12.7501L27.2771 12.8637L27.4625 13.0092C27.579 13.1148 27.6798 13.2378 27.7617 13.3738L27.8698 13.589L27.947 13.8161C28.0068 14.048 28.0162 14.2916 27.9741 14.5295C27.9176 14.847 27.771 15.1407 27.5532 15.3723L27.5493 15.3743L27.5513 15.3763L10.4768 33.4944C9.21747 34.8266 7.11032 33.2901 7.93416 31.6174L13.7203 19.8336H1.58047C1.26913 19.8333 0.963175 19.7366 0.703966 19.5586C0.445129 19.3806 0.243199 19.1274 0.122848 18.8314C0.00248748 18.5351 -0.0302429 18.2084 0.0282469 17.8929C0.0868366 17.5777 0.233466 17.2872 0.451054 17.058L0.452985 17.056L16.2899 0.498056L16.5274 0.28884ZM2.52455 17.7932H14.3631C14.5654 17.7931 14.7653 17.8318 14.952 17.9088L15.1354 17.9985L15.3053 18.112C15.4133 18.1945 15.5105 18.2911 15.5949 18.399L15.7127 18.5703L15.8073 18.7536C15.8624 18.88 15.9005 19.0135 15.9231 19.1502L15.9443 19.3594L15.9405 19.5666C15.9229 19.7743 15.8666 19.9773 15.7744 20.1644L15.7725 20.1624L10.8687 30.1489L25.472 14.655L13.9847 14.8025C13.7219 14.8059 13.4626 14.7412 13.2299 14.6152C12.9972 14.4891 12.7972 14.3064 12.6507 14.0812C12.5042 13.856 12.4151 13.596 12.39 13.326C12.3651 13.056 12.4053 12.7827 12.5078 12.533L16.2378 3.45298L2.52455 17.7932Z" fill="url(#paint0_linear_5007_6586)"/>
<defs>
<linearGradient id="paint0_linear_5007_6586" x1="14" y1="0" x2="14" y2="34" gradientUnits="userSpaceOnUse">
<stop stop-color="#FF2993"/>
<stop offset="1" stop-color="#FFD5EA"/>
</linearGradient>
</defs>
</svg>
