<svg width="119" height="119" viewBox="0 0 119 119" fill="none" xmlns="http://www.w3.org/2000/svg">
<path d="M59.4999 114.538C29.1549 114.538 4.4624 89.845 4.4624 59.5C4.4624 29.155 29.1549 4.46252 59.4999 4.46252C89.8449 4.46252 114.537 29.155 114.537 59.5C114.537 89.845 89.8449 114.538 59.4999 114.538Z" fill="#BAE0BD"/>
<path d="M59.5001 5.94998C88.9526 5.94998 113.05 30.0475 113.05 59.5C113.05 88.9525 88.9526 113.05 59.5001 113.05C30.0476 113.05 5.9501 88.9525 5.9501 59.5C5.9501 30.0475 30.0476 5.94998 59.5001 5.94998ZM59.5001 2.97498C28.2626 2.97498 2.9751 28.2625 2.9751 59.5C2.9751 90.7375 28.2626 116.025 59.5001 116.025C90.7376 116.025 116.025 90.7375 116.025 59.5C116.025 28.2625 90.7376 2.97498 59.5001 2.97498Z" fill="#5E9C76"/>
<path d="M33.3201 59.7975L50.5751 77.0525L89.8451 37.7825" stroke="white" stroke-width="3.75" stroke-miterlimit="10"/>
</svg>
