<svg width="152" height="61" viewBox="0 0 152 61" fill="none" xmlns="http://www.w3.org/2000/svg">
<path d="M20.3569 0.0292358L20.0136 0.986435L4.35626 30.2996V30.5737L18.0715 56.204L31.8144 30.4823L24.3962 16.4257C24.3228 16.2212 24.381 16.0412 24.4336 15.8435C24.4903 15.6308 26.1113 12.5833 26.2442 12.4415C26.3245 12.3556 26.3674 12.2547 26.5155 12.301C29.2466 17.5506 32.274 22.6979 34.9636 27.9789C35.1948 28.4329 36.1596 30.1428 36.1361 30.4946C30.8468 40.7088 25.3569 50.8821 19.86 60.9572C18.6529 60.6041 17.4181 61.2163 16.2028 60.9123C10.7086 51.0526 5.59102 40.9488 0.160574 31.0373C0.069213 30.8709 0 30.6978 0 30.5042C0 30.0924 1.05481 28.2216 1.32058 27.7062C5.41522 19.7377 9.79502 11.8701 14.0613 3.9862C14.7631 2.69085 15.4234 1.35459 16.0657 0.0292358H20.3569Z" fill="white"/>
<path d="M29.2162 60.8427H24.925C24.9222 60.4091 25.2074 59.9987 25.4067 59.6128C30.415 49.8567 35.9077 40.3284 40.9243 30.5737V30.2996L27.209 4.66794L13.4592 30.4005C13.4149 30.6923 13.6502 31.0018 13.7803 31.2568C16.0408 35.6992 18.6211 40.0025 20.8829 44.4476C21.0989 45.2957 19.1249 47.6819 18.9713 48.7073L18.664 48.5327L9.03922 30.391L25.1866 0.11375C25.3112 -0.0498735 29.0542 -0.0403287 29.2868 0.164201L45.2722 30.3787L44.0997 32.8944L29.2162 60.8441V60.8427Z" fill="white"/>
<path d="M91.6463 32.0722V24.6409C91.6463 24.6259 91.8387 24.4364 91.8539 24.4364H94.9685V36.8445H91.7155C89.3207 34.2743 87.0782 31.5418 84.5866 29.0724V36.8445H81.472C81.4568 36.8445 81.2643 36.655 81.2643 36.64V24.4364H84.6558C86.9966 26.9685 89.2017 29.6478 91.6463 32.0722Z" fill="white"/>
<path d="M64.5148 36.8445H60.8465C59.9744 35.6501 59.2532 34.3302 58.5625 33.0266H54.6866V36.8445H51.3643V24.4364H60.5697C60.6707 24.4364 61.5193 24.7459 61.702 24.8209C64.3016 25.8845 64.8941 29.1283 63.1873 31.2418C62.9201 31.5731 62.0176 32.169 62.0204 32.4103L64.5148 36.8445ZM54.6866 30.4359H59.6007C60.4492 30.4359 60.7441 28.2025 60.1516 27.4389C60.0492 27.308 59.4124 26.8908 59.3238 26.8908H54.6866V30.4359Z" fill="white"/>
<path d="M112.133 36.8446H108.603C108.037 36.3237 108.066 34.7516 107.228 34.6547C105.496 34.4557 103.345 34.7993 101.566 34.6847C101.21 34.8047 100.735 36.426 100.644 36.8446H96.9065C96.8816 36.5487 97.0186 36.2951 97.1169 36.0292C98.533 32.2277 100.751 28.4875 102.192 24.6655L102.3 24.4992C102.47 24.386 105.954 24.3751 106.397 24.4296C106.549 24.4487 106.706 24.4201 106.805 24.5728L112.133 36.8459V36.8446ZM102.444 32.2086H106.596L104.588 27.0258L102.444 32.2086Z" fill="white"/>
<path d="M78.219 24.4364V26.8908H70.9516C70.9364 26.8908 70.744 27.0803 70.744 27.0953V29.3451H77.3192C77.3344 29.3451 77.5268 29.5346 77.5268 29.5496V31.7995H70.9516C70.9364 31.7995 70.744 31.989 70.744 32.004V34.2538H78.3574V36.8445H67.4218V24.4364H78.219Z" fill="white"/>
<path d="M123.346 24.4364H126.668V33.6402C126.668 33.763 126.16 34.8824 126.037 35.0638C124.266 37.6381 117.416 37.5836 115.114 35.751C114.678 35.4033 113.796 34.3111 113.796 33.7766V24.4364H116.91C116.926 24.4364 117.118 24.6259 117.118 24.6409V33.0948C117.118 33.1425 117.712 33.703 117.817 33.7698C118.765 34.3738 120.796 34.3929 121.855 34.0793C122.237 33.9661 123.347 33.3798 123.347 32.9585V24.4364H123.346Z" fill="white"/>
<path d="M152 24.4364V26.8908H147.363C147.348 26.8908 147.155 27.0803 147.155 27.0953V36.8445H143.833V27.0953C143.833 26.9998 143.602 26.9112 143.487 26.8908C142.384 26.6917 140.471 26.9521 139.301 27.0012C139.19 27.053 138.988 26.8717 138.988 26.8226V24.4364H152Z" fill="white"/>
<path d="M133.451 24.4364V34.2538H140.441C140.457 34.2538 140.649 34.4434 140.649 34.4584V36.64C140.649 36.655 140.457 36.8445 140.441 36.8445H130.129V24.4364H133.451Z" fill="white"/>
</svg>
