<svg width="201" height="40" viewBox="0 0 201 40" fill="none" xmlns="http://www.w3.org/2000/svg">
<g clip-path="url(#clip0_5007_1930)">
<path d="M35.0818 0.567765L26.5795 4.02376C26.3569 4.10847 26.1685 4.26094 26.0315 4.45576C25.8945 4.65059 25.826 4.88776 25.8346 5.12494V14.5442L32.5645 11.876C33.6176 11.4779 34.5167 10.7748 35.1417 9.85153C35.7753 8.92824 36.1007 7.83553 36.075 6.72588V1.23694C36.0835 1.11835 36.0664 0.991294 36.0065 0.889647C35.9551 0.779529 35.8695 0.686353 35.7753 0.618588C35.6726 0.550824 35.5527 0.508471 35.4328 0.5C35.3129 0.5 35.1845 0.516941 35.0818 0.567765Z" fill="white"/>
<path d="M15.5 19.4996V24.5734C15.5 31.4854 20.5688 36.5 27.5642 36.5H35.1417C35.2701 36.5 35.39 36.4831 35.5013 36.4407C35.6126 36.3984 35.7239 36.3306 35.8096 36.2374C35.8952 36.1527 35.9637 36.0511 36.0151 35.9325C36.0579 35.8139 36.0836 35.6953 36.075 35.5767V27.2501C36.075 27.1231 36.0579 27.0045 36.0151 26.8944C35.9722 26.7843 35.9037 26.6741 35.8096 26.5894C35.7239 26.5047 35.6212 26.437 35.5013 26.3861C35.39 26.3438 35.2616 26.3184 35.1417 26.3269H27.3844C27.1789 26.3269 26.9734 26.3014 26.7764 26.2252C26.5881 26.149 26.4083 26.0389 26.2627 25.8949C26.1171 25.7509 26.0058 25.573 25.9288 25.3866C25.8517 25.1918 25.8175 24.9885 25.826 24.7852V14.5527L16.2535 18.3984C16.0309 18.4831 15.8339 18.6356 15.6969 18.8304C15.5599 19.0252 15.4915 19.2624 15.5 19.4996Z" fill="white"/>
<path d="M77.5674 8.86896C71.0858 8.86896 66.1026 13.8497 66.1026 20.1264C66.1026 26.4031 71.0944 31.3838 77.5674 31.3838C84.0405 31.3838 89.0322 26.4031 89.0322 20.1264C89.0322 13.8497 84.0405 8.86896 77.5674 8.86896ZM77.5674 26.9706C73.6716 26.9706 70.9574 23.989 70.9574 20.1264C70.9574 16.2638 73.6716 13.2821 77.5674 13.2821C81.4632 13.2821 84.1346 16.2638 84.1346 20.1264C84.1346 23.989 81.4204 26.9706 77.5674 26.9706Z" fill="white"/>
<path d="M112.013 25.2426L108.426 23.3367C108.426 23.3367 108.34 23.2944 108.289 23.2944C108.237 23.2944 108.194 23.2944 108.143 23.3113C108.1 23.3282 108.057 23.3537 108.023 23.3875C107.989 23.4214 107.963 23.4638 107.946 23.5061C107.398 24.5565 106.559 25.4459 105.532 26.0558C104.504 26.6656 103.323 26.9875 102.124 26.9706C98.228 26.9706 95.471 23.9889 95.471 20.1264C95.471 16.2638 98.228 13.2821 102.124 13.2821C103.323 13.2652 104.504 13.5871 105.532 14.1969C106.559 14.8068 107.398 15.6878 107.946 16.7466C107.963 16.7889 107.989 16.8313 108.023 16.8652C108.057 16.8991 108.1 16.9245 108.143 16.9414C108.186 16.9584 108.237 16.9668 108.289 16.9584C108.34 16.9499 108.383 16.9414 108.426 16.916L112.013 15.0101C112.056 14.9932 112.099 14.9593 112.124 14.9254C112.159 14.8915 112.176 14.8492 112.193 14.8068C112.202 14.7645 112.21 14.7136 112.193 14.6628C112.193 14.6205 112.167 14.5697 112.133 14.5358C110.207 11.0713 106.533 8.86047 102.107 8.86047C95.5395 8.86047 90.5477 13.7141 90.5477 20.1179C90.5477 26.5217 95.5395 31.3753 102.107 31.3753C106.525 31.3753 110.249 29.1645 112.176 25.6577C112.21 25.5729 112.21 25.4882 112.176 25.4035C112.142 25.3188 112.082 25.2595 111.996 25.2257L112.013 25.2426Z" fill="white"/>
<path d="M65.529 26.6233H54.3296V9.64826C54.3296 9.55508 54.2868 9.47038 54.2183 9.41108C54.1498 9.35179 54.0642 9.30943 53.9786 9.30096H49.8601C49.766 9.30096 49.6803 9.34332 49.6204 9.41108C49.5519 9.47038 49.5177 9.56355 49.5091 9.64826V26.9706C49.5091 29.4356 51.0417 30.9518 53.5333 30.9518H65.529C65.6232 30.9518 65.7088 30.9094 65.7687 30.8417C65.8372 30.7824 65.8715 30.6892 65.88 30.6045V26.9706C65.88 26.8774 65.8372 26.7927 65.7687 26.7334C65.7088 26.6657 65.6232 26.6318 65.529 26.6233Z" fill="white"/>
<path d="M174.517 26.6233H163.035L174.346 13.3329C174.457 13.1974 174.517 13.028 174.517 12.8586V9.66517C174.517 9.57199 174.474 9.48728 174.406 9.42799C174.346 9.36022 174.26 9.32634 174.166 9.31787H157.359C157.264 9.31787 157.179 9.36022 157.119 9.42799C157.05 9.49575 157.016 9.58046 157.008 9.66517V13.299C157.008 13.3922 157.05 13.4769 157.119 13.5362C157.187 13.604 157.273 13.6379 157.359 13.6463H168.293L157.008 26.9875C156.896 27.123 156.836 27.284 156.836 27.4619V30.6129C156.836 30.7061 156.879 30.7908 156.948 30.8501C157.016 30.9179 157.093 30.9518 157.187 30.9602H174.517C174.611 30.9602 174.688 30.9179 174.757 30.8501C174.825 30.7908 174.86 30.7061 174.868 30.6129V26.979C174.868 26.8859 174.825 26.8012 174.757 26.7419C174.688 26.6826 174.603 26.6402 174.517 26.6318V26.6233Z" fill="white"/>
<path d="M153.249 1.55035H149.139C149.045 1.55035 148.959 1.59271 148.899 1.66047C148.839 1.72824 148.796 1.81294 148.788 1.89765V6.05671C148.788 6.14141 148.831 6.23459 148.899 6.29388C148.968 6.35318 149.053 6.39553 149.139 6.404H150.714C151.1 6.41247 151.476 6.35318 151.836 6.20918C152.196 6.06518 152.512 5.86188 152.786 5.59082C153.06 5.31977 153.274 5.00635 153.411 4.65059C153.557 4.29482 153.617 3.92212 153.608 3.54094V1.89765C153.608 1.80447 153.566 1.71977 153.497 1.66047C153.429 1.60118 153.351 1.55882 153.257 1.55035H153.249Z" fill="white"/>
<path d="M198.149 9.30096H194.031C193.936 9.30096 193.859 9.34331 193.791 9.41108C193.722 9.47884 193.688 9.56355 193.679 9.64825V12.2233C192.455 10.4784 189.844 8.86896 186.676 8.86896C180.682 8.86896 176.118 13.9344 176.118 20.1264C176.118 26.3184 180.674 31.3838 186.676 31.3838C189.844 31.3838 192.455 29.7744 193.679 28.0294V30.6045C193.679 30.6977 193.722 30.7824 193.791 30.8417C193.859 30.9094 193.936 30.9433 194.031 30.9518H198.149C198.243 30.9518 198.329 30.9094 198.389 30.8417C198.457 30.7824 198.491 30.6892 198.5 30.6045V9.64825C198.5 9.55508 198.457 9.47037 198.389 9.41108C198.32 9.35178 198.235 9.30943 198.149 9.30096ZM187.558 27.0553C183.705 27.0553 181.033 24.0228 181.033 20.1264C181.033 16.2299 183.705 13.1974 187.558 13.1974C191.411 13.1974 194.082 16.2299 194.082 20.1264C194.082 24.0228 191.411 27.0553 187.558 27.0553Z" fill="white"/>
<path d="M135.439 9.30096H131.321C131.227 9.30096 131.141 9.34331 131.081 9.41108C131.021 9.47884 130.978 9.56355 130.97 9.64825V12.2233C129.746 10.4784 127.134 8.86896 123.966 8.86896C117.964 8.86896 113.409 13.9344 113.409 20.1264C113.409 26.3184 117.964 31.3838 123.966 31.3838C127.134 31.3838 129.746 29.7744 130.97 28.0294V30.6045C130.97 30.6977 131.013 30.7824 131.081 30.8417C131.15 30.9094 131.235 30.9433 131.321 30.9518H135.439C135.534 30.9518 135.619 30.9094 135.679 30.8417C135.748 30.7739 135.782 30.6892 135.79 30.6045V9.64825C135.79 9.55508 135.748 9.47037 135.679 9.41108C135.619 9.35178 135.534 9.30943 135.439 9.30096ZM124.848 27.0553C120.995 27.0553 118.324 24.0228 118.324 20.1264C118.324 16.2299 120.995 13.1974 124.848 13.1974C128.701 13.1974 131.372 16.2299 131.372 20.1264C131.372 24.0228 128.692 27.0553 124.839 27.0553H124.848Z" fill="white"/>
<path d="M153.249 9.30096H149.139C148.942 9.30096 148.788 9.45343 148.788 9.64826V30.6045C148.788 30.7993 148.942 30.9518 149.139 30.9518H153.249C153.446 30.9518 153.6 30.7993 153.6 30.6045V9.64826C153.6 9.45343 153.446 9.30096 153.249 9.30096Z" fill="white"/>
<path d="M144.361 1.55035H140.251C140.054 1.55035 139.9 1.70282 139.9 1.89765V30.6045C139.9 30.7993 140.054 30.9518 140.251 30.9518H144.361C144.558 30.9518 144.712 30.7993 144.712 30.6045V1.89765C144.712 1.70282 144.558 1.55035 144.361 1.55035Z" fill="white"/>
</g>
<defs>
<clipPath id="clip0_5007_1930">
<rect width="183" height="36" fill="white" transform="translate(15.5 0.5)"/>
</clipPath>
</defs>
</svg>
